<?xml version="1.0" encoding="utf-8"?>
<!-- Generator: Adobe Illustrator 15.0.0, SVG Export Plug-In . SVG Version: 6.00 Build 0)  -->
<!DOCTYPE svg PUBLIC "-//W3C//DTD SVG 1.1//EN" "http://www.w3.org/Graphics/SVG/1.1/DTD/svg11.dtd">
<svg version="1.1" id="Layer_1" xmlns="http://www.w3.org/2000/svg" xmlns:xlink="http://www.w3.org/1999/xlink" x="0px" y="0px"
	 width="180px" height="200px" viewBox="0 0 180 200" enable-background="new 0 0 180 200" xml:space="preserve">
<path fill="none" stroke="#FFFFFF" stroke-width="9" d="M66,145V15l70,20v130 M66,24l70,20"/>
<path fill="#FFFFFF" d="M70,144c-0.46-8.279-12.02-14.768-25.819-14.492c-13.799,0.277-24.613,7.213-24.153,15.492
	c0.46,8.279,12.02,14.768,25.819,14.492C59,159.229,69.562,152.893,70,145 M140,164c-0.461-8.279-12.02-14.768-25.819-14.492
	c-13.8,0.277-24.613,7.213-24.153,15.492c0.46,8.279,12.02,14.768,25.82,14.492C129,179.229,139.562,172.893,140,165"/>
<line fill="none" stroke="#FFFFFF" stroke-width="9" x1="24.5" y1="15" x2="162.5" y2="165"/>
</svg>
